<svg width="25" height="25" viewBox="0 0 25 25" fill="none" xmlns="http://www.w3.org/2000/svg">
<path d="M7.12094 0H17.434C21.3628 0 24.555 3.25 24.555 7.25V17.75C24.555 19.6728 23.8047 21.5169 22.4693 22.8765C21.1338 24.2362 19.3226 25 17.434 25H7.12094C3.19214 25 0 21.75 0 17.75V7.25C0 5.32718 0.75024 3.48311 2.08567 2.12348C3.42111 0.763837 5.23235 0 7.12094 0ZM6.87539 2.5C5.70316 2.5 4.57894 2.97411 3.75005 3.81802C2.92116 4.66193 2.4555 5.80653 2.4555 7V18C2.4555 20.4875 4.43217 22.5 6.87539 22.5H17.6796C18.8518 22.5 19.976 22.0259 20.8049 21.182C21.6338 20.3381 22.0995 19.1935 22.0995 18V7C22.0995 4.5125 20.1228 2.5 17.6796 2.5H6.87539ZM18.7232 4.375C19.1302 4.375 19.5205 4.53962 19.8083 4.83265C20.0961 5.12567 20.2578 5.5231 20.2578 5.9375C20.2578 6.3519 20.0961 6.74933 19.8083 7.04235C19.5205 7.33538 19.1302 7.5 18.7232 7.5C18.3161 7.5 17.9258 7.33538 17.638 7.04235C17.3502 6.74933 17.1885 6.3519 17.1885 5.9375C17.1885 5.5231 17.3502 5.12567 17.638 4.83265C17.9258 4.53962 18.3161 4.375 18.7232 4.375ZM12.2775 6.25C13.9056 6.25 15.467 6.90848 16.6182 8.08058C17.7695 9.25268 18.4162 10.8424 18.4162 12.5C18.4162 14.1576 17.7695 15.7473 16.6182 16.9194C15.467 18.0915 13.9056 18.75 12.2775 18.75C10.6494 18.75 9.08797 18.0915 7.93673 16.9194C6.7855 15.7473 6.13874 14.1576 6.13874 12.5C6.13874 10.8424 6.7855 9.25268 7.93673 8.08058C9.08797 6.90848 10.6494 6.25 12.2775 6.25ZM12.2775 8.75C11.3006 8.75 10.3638 9.14509 9.67303 9.84835C8.98229 10.5516 8.59423 11.5054 8.59423 12.5C8.59423 13.4946 8.98229 14.4484 9.67303 15.1517C10.3638 15.8549 11.3006 16.25 12.2775 16.25C13.2543 16.25 14.1912 15.8549 14.8819 15.1517C15.5727 14.4484 15.9607 13.4946 15.9607 12.5C15.9607 11.5054 15.5727 10.5516 14.8819 9.84835C14.1912 9.14509 13.2543 8.75 12.2775 8.75Z" fill="#EEEEEE"/>
</svg>
